<svg width="40" height="40" viewBox="0 0 40 40" fill="none" xmlns="http://www.w3.org/2000/svg">
<path fill-rule="evenodd" clip-rule="evenodd" d="M15 5.37172C15 4.99423 15.1281 4.62791 15.3633 4.3327C15.5986 4.0375 15.9271 3.83089 16.295 3.74672C18.7335 3.19203 21.2655 3.19317 23.7034 3.75005C24.0717 3.8339 24.4005 4.04036 24.6361 4.3356C24.8717 4.63084 25 4.99734 25 5.37505V8.45338C25.0001 8.74594 25.0771 9.03334 25.2234 9.2867C25.3696 9.54006 25.58 9.75045 25.8334 9.89673C26.0868 10.043 26.3742 10.12 26.6667 10.12C26.9593 10.12 27.2467 10.043 27.5 9.89672L30.1684 8.35505C30.4957 8.16609 30.8776 8.09401 31.2513 8.15064C31.625 8.20728 31.9684 8.38925 32.225 8.66672C33.9197 10.5032 35.1842 12.694 35.9267 15.08C36.0386 15.441 36.0245 15.8293 35.8867 16.1812C35.7489 16.5331 35.4956 16.8277 35.1684 17.0167L32.5 18.5567C32.2467 18.703 32.0363 18.9134 31.8901 19.1668C31.7438 19.4201 31.6668 19.7075 31.6668 20C31.6668 20.2926 31.7438 20.58 31.8901 20.8333C32.0363 21.0867 32.2467 21.2971 32.5 21.4434L35.1667 22.9817C35.4936 23.1707 35.7467 23.465 35.8844 23.8165C36.0222 24.1681 36.0365 24.556 35.925 24.9167C35.1889 27.3067 33.9243 29.5003 32.225 31.3351C31.9682 31.6122 31.6247 31.7939 31.251 31.8502C30.8773 31.9066 30.4956 31.8342 30.1684 31.645L27.5 30.1034C27.2467 29.9571 26.9593 29.8801 26.6667 29.8801C26.3742 29.8801 26.0868 29.9571 25.8334 30.1034C25.58 30.2496 25.3696 30.46 25.2234 30.7134C25.0771 30.9668 25.0001 31.2542 25 31.5467V34.63C24.9997 35.0075 24.8712 35.3736 24.6356 35.6685C24.4001 35.9634 24.0714 36.1696 23.7034 36.2534C21.265 36.8081 18.733 36.8069 16.295 36.25C15.9271 36.1659 15.5986 35.9593 15.3633 35.6641C15.1281 35.3689 15 35.0025 15 34.625V31.5467C15 31.2542 14.923 30.9668 14.7767 30.7134C14.6305 30.46 14.4201 30.2496 14.1667 30.1034C13.9133 29.9571 13.6259 29.8801 13.3334 29.8801C13.0408 29.8801 12.7534 29.9571 12.5 30.1034L9.83171 31.645C9.50436 31.834 9.1225 31.9061 8.74879 31.8495C8.37508 31.7928 8.03172 31.6108 7.77505 31.3334C6.92914 30.419 6.18841 29.4128 5.56671 28.3334C4.94293 27.255 4.44202 26.1101 4.07338 24.92C3.96149 24.5591 3.9756 24.1708 4.11339 23.8189C4.25118 23.467 4.50447 23.1724 4.83171 22.9834L7.49838 21.4434C7.75173 21.2971 7.9621 21.0867 8.10837 20.8333C8.25464 20.58 8.33164 20.2926 8.33164 20C8.33164 19.7075 8.25464 19.4201 8.10837 19.1668C7.9621 18.9134 7.75173 18.703 7.49838 18.5567L4.83505 17.0184C4.50786 16.8297 4.25446 16.5355 4.11638 16.1839C3.9783 15.8323 3.96373 15.4443 4.07505 15.0834C4.81147 12.694 6.07603 10.501 7.77505 8.66672C8.03162 8.38965 8.37467 8.20792 8.74801 8.1513C9.12136 8.09468 9.50287 8.16652 9.83005 8.35505L12.5 9.89672C12.7534 10.043 13.0408 10.12 13.3334 10.12C13.6259 10.12 13.9133 10.043 14.1667 9.89673C14.4201 9.75045 14.6305 9.54006 14.7767 9.2867C14.923 9.03334 15 8.74594 15 8.45338V5.37172ZM20 25C21.3261 25 22.5979 24.4733 23.5356 23.5356C24.4733 22.5979 25 21.3261 25 20C25 18.674 24.4733 17.4022 23.5356 16.4645C22.5979 15.5268 21.3261 15 20 15C18.674 15 17.4022 15.5268 16.4645 16.4645C15.5268 17.4022 15 18.674 15 20C15 21.3261 15.5268 22.5979 16.4645 23.5356C17.4022 24.4733 18.674 25 20 25Z" fill="#295AA8"/>
</svg>
