<svg width="40" height="40" viewBox="0 0 40 40" fill="none" xmlns="http://www.w3.org/2000/svg">
<path d="M20 1.6665L5 8.33317V18.3332C5 27.5832 11.4 36.2332 20 38.3332C28.6 36.2332 35 27.5832 35 18.3332V8.33317L20 1.6665ZM20 11.6665C22.3333 11.6665 24.6667 13.4998 24.6667 15.8332V18.3332C25.6667 18.3332 26.6667 19.3332 26.6667 20.4998V26.3332C26.6667 27.3332 25.6667 28.3332 24.5 28.3332H15.3333C14.3333 28.3332 13.3333 27.3332 13.3333 26.1665V20.3332C13.3333 19.3332 14.3333 18.3332 15.3333 18.3332V15.8332C15.3333 13.4998 17.6667 11.6665 20 11.6665ZM20 13.6665C18.6667 13.6665 17.5 14.4998 17.5 15.8332V18.3332H22.5V15.8332C22.5 14.4998 21.3333 13.6665 20 13.6665Z" fill="#295AA8"/>
</svg>
