<svg width="150" height="150" viewBox="0 0 150 150" fill="none" xmlns="http://www.w3.org/2000/svg">
<mask id="mask0_151_2" style="mask-type:luminance" maskUnits="userSpaceOnUse" x="0" y="0" width="150" height="150">
<path d="M150 0H0V150H150V0Z" fill="white"/>
</mask>
<g mask="url(#mask0_151_2)">
<path d="M1.11687 30.7114C45.3967 21.3582 69.9328 16.1885 74.7253 15.2023L104.983 21.2162L105.715 5.34766L120.157 8.37888L120.825 24.0952L148.59 30.4916L148.581 45.7032L142.061 45.9961L142.282 145.93L7.50725 145.903L7.06978 45.6296L0.768677 45.8493L1.11687 30.7114Z" stroke="#295AA8" stroke-width="4" stroke-linecap="square" stroke-linejoin="round"/>
<path d="M18.4988 44.6777C20.9258 44.6777 22.8933 42.6447 22.8933 40.1367C22.8933 37.6288 20.9258 35.5957 18.4988 35.5957C16.0717 35.5957 14.1042 37.6288 14.1042 40.1367C14.1042 42.6447 16.0717 44.6777 18.4988 44.6777Z" stroke="#295AA8" stroke-width="4" stroke-linecap="square" stroke-linejoin="bevel"/>
<path d="M100.839 67.5747C103.266 67.5747 105.233 65.5416 105.233 63.0337C105.233 60.5258 103.266 58.4927 100.839 58.4927C98.4117 58.4927 96.4442 60.5258 96.4442 63.0337C96.4442 65.5416 98.4117 67.5747 100.839 67.5747Z" stroke="#295AA8" stroke-width="4" stroke-linecap="square" stroke-linejoin="bevel"/>
<path d="M124.512 124.822C126.939 124.822 128.906 122.789 128.906 120.281C128.906 117.773 126.939 115.74 124.512 115.74C122.085 115.74 120.117 117.773 120.117 120.281C120.117 122.789 122.085 124.822 124.512 124.822Z" stroke="#295AA8" stroke-width="4" stroke-linecap="square" stroke-linejoin="bevel"/>
<path d="M73.2424 119.3C75.6695 119.3 77.637 117.267 77.637 114.759C77.637 112.251 75.6695 110.218 73.2424 110.218C70.8154 110.218 68.8479 112.251 68.8479 114.759C68.8479 117.267 70.8154 119.3 73.2424 119.3Z" stroke="#295AA8" stroke-width="4" stroke-linecap="square" stroke-linejoin="bevel"/>
<path d="M85.955 40.4839C88.382 40.4839 90.3495 38.4508 90.3495 35.9429C90.3495 33.4349 88.382 31.4019 85.955 31.4019C83.5279 31.4019 81.5604 33.4349 81.5604 35.9429C81.5604 38.4508 83.5279 40.4839 85.955 40.4839Z" stroke="#295AA8" stroke-width="4" stroke-linecap="square" stroke-linejoin="bevel"/>
<path d="M40.9424 81.9023C43.3694 81.9023 45.3369 79.8693 45.3369 77.3613C45.3369 74.8534 43.3694 72.8203 40.9424 72.8203C38.5153 72.8203 36.5479 74.8534 36.5479 77.3613C36.5479 79.8693 38.5153 81.9023 40.9424 81.9023Z" stroke="#295AA8" stroke-width="4" stroke-linecap="square" stroke-linejoin="bevel"/>
<path d="M44.7876 94.5366C47.2147 94.5366 49.1821 92.5035 49.1821 89.9956C49.1821 87.4877 47.2147 85.4546 44.7876 85.4546C42.3605 85.4546 40.3931 87.4877 40.3931 89.9956C40.3931 92.5035 42.3605 94.5366 44.7876 94.5366Z" stroke="#295AA8" stroke-width="4" stroke-linecap="square" stroke-linejoin="bevel"/>
<path d="M18.3108 123.65C20.7378 123.65 22.7053 121.617 22.7053 119.109C22.7053 116.601 20.7378 114.568 18.3108 114.568C15.8838 114.568 13.9163 116.601 13.9163 119.109C13.9163 121.617 15.8838 123.65 18.3108 123.65Z" stroke="#295AA8" stroke-width="4" stroke-linecap="square" stroke-linejoin="bevel"/>
<path d="M17.212 109.148C19.6391 109.148 21.6066 107.115 21.6066 104.607C21.6066 102.099 19.6391 100.066 17.212 100.066C14.785 100.066 12.8175 102.099 12.8175 104.607C12.8175 107.115 14.785 109.148 17.212 109.148Z" stroke="#295AA8" stroke-width="4" stroke-linecap="square" stroke-linejoin="bevel"/>
<path d="M24.0312 40.4297C27.5743 40.4297 46.0426 40.2832 49.5854 40.2832C49.5439 42.0749 49.4914 47.6923 49.5237 52.2217C47.0533 52.0673 12.0783 52.1686 8.71594 52.1854" stroke="#295AA8" stroke-width="4" stroke-miterlimit="2" stroke-linecap="square"/>
<path d="M85.3757 40.5266C85.4294 44.0908 85.347 47.7278 85.4004 51.292C83.2804 51.2822 64.6778 51.3561 60.0501 51.458C59.9976 53.6562 60.1874 61.3408 60.1047 64.0489C64.1633 63.9287 80.524 63.597 85.1807 63.5585C85.3208 65.4973 85.4181 62.9979 85.2173 86.0573" stroke="#295AA8" stroke-width="4" stroke-miterlimit="2.0016" stroke-linecap="square"/>
<path d="M107.007 63.2002C113.269 63.2002 119.531 63.2002 125.793 63.2002C125.63 65.2144 125.628 69.5582 125.685 74.1868C131.098 74.21 135.646 73.6921 139.354 73.7837" stroke="#295AA8" stroke-width="4" stroke-miterlimit="2" stroke-linecap="square"/>
<path d="M40.9512 142.998C40.9255 138.054 40.9234 135.454 40.9512 132.377C35.1232 132.524 20.8625 132.583 18.0384 132.597C17.9701 129.51 17.8947 127.966 18.0278 124.76" stroke="#295AA8" stroke-width="4" stroke-miterlimit="2" stroke-linecap="square"/>
<path d="M38.5341 90.1899C35.8363 90.3364 35.6654 90.2998 31.4296 90.3364C31.4613 93.0098 31.3725 101.261 31.4052 104.875C26.0832 105.011 28.1582 104.821 21.9828 104.838" stroke="#295AA8" stroke-width="4" stroke-miterlimit="2" stroke-linecap="square"/>
<path d="M34.3592 77.417C27.2303 77.5635 26.4735 77.446 20.7362 77.3728C20.7677 72.4656 20.7158 70.6937 20.675 65.9473C16.8712 65.8628 13.3535 66.0029 10.0442 66.0203" stroke="#295AA8" stroke-width="4" stroke-miterlimit="2" stroke-linecap="square"/>
<path d="M98.9134 143.408C98.9882 140.613 99.2637 89.9927 99.2995 86.3904C86.0301 86.4105 65.6422 86.8665 61.1867 86.9073C61.1213 98.3029 61.0911 132.153 61.1574 143.034" stroke="#295AA8" stroke-width="4" stroke-miterlimit="2" stroke-linecap="square"/>
<path d="M101.331 95.6177H122.537" stroke="#295AA8" stroke-width="4" stroke-miterlimit="2" stroke-linecap="square"/>
<path d="M124.329 95.6543V113.672" stroke="#295AA8" stroke-width="4" stroke-miterlimit="2" stroke-linecap="square"/>
<path d="M68.1152 115.155L63.0029 115.249" stroke="#295AA8" stroke-width="4" stroke-miterlimit="2" stroke-linecap="square"/>
<path d="M121.824 40.0255C121.886 37.5993 119.902 35.5815 117.395 35.5183C114.888 35.4555 112.806 37.3714 112.746 39.7975C112.684 42.224 114.668 44.2418 117.175 44.3047C119.682 44.3678 121.764 42.4519 121.824 40.0255Z" stroke="#295AA8" stroke-width="4" stroke-linecap="square" stroke-linejoin="bevel"/>
<path d="M117.616 45.8745C117.745 52.5545 118.091 55.2892 118.168 62.6009" stroke="#295AA8" stroke-width="4" stroke-miterlimit="2" stroke-linecap="square"/>
</g>
</svg>
