<svg width="40" height="40" viewBox="0 0 40 40" fill="none" xmlns="http://www.w3.org/2000/svg">
<path d="M20 3.3335C16.9058 3.3335 13.9383 4.56266 11.7504 6.75058C9.56246 8.93851 8.3333 11.906 8.3333 15.0002V20.8802C8.33354 21.1387 8.27363 21.3938 8.1583 21.6252L5.29663 27.3468C5.15684 27.6264 5.09084 27.937 5.10488 28.2492C5.11892 28.5614 5.21255 28.8649 5.37687 29.1307C5.5412 29.3966 5.77075 29.616 6.04374 29.7682C6.31673 29.9204 6.6241 30.0002 6.93663 30.0002H33.0633C33.3758 30.0002 33.6832 29.9204 33.9562 29.7682C34.2292 29.616 34.4587 29.3966 34.6231 29.1307C34.7874 28.8649 34.881 28.5614 34.8951 28.2492C34.9091 27.937 34.8431 27.6264 34.7033 27.3468L31.8433 21.6252C31.7274 21.3939 31.6669 21.1388 31.6666 20.8802V15.0002C31.6666 11.906 30.4375 8.93851 28.2495 6.75058C26.0616 4.56266 23.0942 3.3335 20 3.3335ZM20 35.0002C18.9655 35.0007 17.9564 34.6804 17.1117 34.0834C16.2669 33.4864 15.6281 32.6421 15.2833 31.6668H24.7166C24.3718 32.6421 23.733 33.4864 22.8883 34.0834C22.0435 34.6804 21.0344 35.0007 20 35.0002Z" fill="#295AA8"/>
</svg>
