<svg width="75" height="75" viewBox="0 0 75 75" fill="none" xmlns="http://www.w3.org/2000/svg">
<path fill-rule="evenodd" clip-rule="evenodd" d="M35.0626 69.6536C33.6418 69.6536 32.2792 69.0892 31.2745 68.0845C30.2699 67.0798 29.7055 65.7172 29.7055 64.2964C29.7055 62.8756 30.2699 61.513 31.2745 60.5084C32.2792 59.5037 33.6418 58.9393 35.0626 58.9393H49.6769C53.3766 58.8672 56.9005 57.3469 59.4915 54.705C62.0825 52.0631 63.5339 48.5102 63.5339 44.8098C63.5339 41.1094 62.0825 37.5566 59.4915 34.9146C56.9005 32.2727 53.3766 30.7524 49.6769 30.6804H25.8055V39.9375C25.8052 40.9969 25.4909 42.0324 24.9022 42.9132C24.3136 43.7939 23.477 44.4804 22.4982 44.8858C21.5195 45.2911 20.4425 45.3972 19.4035 45.1906C18.3645 44.984 17.41 44.474 16.6608 43.725L2.05724 29.1214C1.30489 28.3741 0.791289 27.4202 0.581481 26.3807C0.371674 25.3412 0.475102 24.2628 0.878665 23.2821C1.13938 22.6393 1.52866 22.0554 2.04652 21.5304L16.6608 6.91608C17.41 6.1671 18.3645 5.65706 19.4035 5.45045C20.4425 5.24384 21.5195 5.34992 22.4982 5.75529C23.477 6.16067 24.3136 6.84713 24.9022 7.7279C25.4909 8.60867 25.8052 9.6442 25.8055 10.7036V19.9661H49.6769C52.9701 19.9177 56.2401 20.5246 59.2966 21.7514C62.3532 22.9782 65.1354 24.8005 67.4813 27.1122C69.8273 29.424 71.6902 32.1791 72.9618 35.2173C74.2333 38.2555 74.8881 41.5162 74.8881 44.8098C74.8881 48.1034 74.2333 51.3641 72.9618 54.4023C71.6902 57.4406 69.8273 60.1957 67.4813 62.5074C65.1354 64.8192 62.3532 66.6414 59.2966 67.8682C56.2401 69.0951 52.9701 69.7019 49.6769 69.6536H35.0626Z" fill="#295AA8"/>
</svg>
